<?xml version="1.0" standalone="no"?>
<!DOCTYPE svg PUBLIC "-//W3C//DTD SVG 20010904//EN"
 "http://www.w3.org/TR/2001/REC-SVG-20010904/DTD/svg10.dtd">
<svg version="1.0" xmlns="http://www.w3.org/2000/svg"
 width="1024.000000pt" height="1024.000000pt" viewBox="0 0 1024.000000 1024.000000"
 preserveAspectRatio="xMidYMid meet">

<g transform="translate(0.000000,1024.000000) scale(0.100000,-0.100000)"
fill="#000000" stroke="none">
<path d="M3021 7374 c-170 -160 -230 -347 -172 -534 27 -84 27 -134 1 -160
-25 -25 -37 -25 -76 -1 -54 33 -75 80 -83 184 l-6 92 -37 -50 c-55 -73 -71
-131 -66 -229 10 -183 135 -299 374 -346 126 -25 173 -41 230 -80 l45 -30 56
52 c75 72 105 133 111 229 4 64 1 85 -21 137 -34 84 -75 151 -163 263 -41 52
-91 127 -111 167 -48 97 -57 203 -24 301 12 35 20 65 17 68 -2 2 -36 -26 -75
-63z"/>
<path d="M1027 6873 c-81 -183 -108 -388 -72 -558 20 -94 92 -238 167 -331
109 -135 293 -276 498 -380 106 -55 101 -65 -18 -39 -102 23 -197 58 -307 112
-124 62 -199 118 -289 214 l-76 82 0 -107 c0 -59 7 -142 16 -184 19 -98 96
-257 163 -338 106 -130 295 -244 496 -299 55 -15 107 -30 115 -33 8 -3 -21
-10 -65 -15 -130 -16 -293 12 -447 78 -29 12 -22 -11 25 -83 82 -127 185 -221
343 -315 81 -49 276 -132 378 -162 215 -62 377 -128 411 -165 38 -42 -29 -137
-134 -190 -32 -16 -121 -46 -197 -68 -227 -64 -340 -118 -476 -228 -121 -98
-230 -247 -283 -388 -47 -126 -49 -299 -4 -433 30 -90 123 -227 195 -286 57
-46 240 -145 250 -135 3 3 -11 36 -30 74 -122 246 -108 530 41 802 42 78 173
233 158 187 -16 -47 -35 -171 -35 -226 0 -131 53 -263 136 -341 l30 -28 0 123
c2 310 135 477 454 570 47 14 142 41 213 61 260 73 455 199 597 388 149 198
215 423 191 656 -18 171 -80 322 -202 492 -82 116 -91 136 -91 222 -1 75 26
134 83 182 71 60 105 70 242 74 70 2 127 6 127 9 0 20 -38 67 -79 97 -61 45
-107 62 -197 71 -81 8 -81 8 -118 57 -17 22 -52 50 -89 68 -55 27 -69 30 -161
30 -56 0 -144 -7 -196 -16 -144 -25 -260 -22 -342 9 -38 13 -68 20 -68 15 0
-15 54 -89 95 -131 37 -38 101 -75 168 -96 20 -7 37 -15 37 -17 0 -3 -14 -33
-31 -67 -49 -96 -70 -165 -75 -252 -11 -155 31 -278 160 -464 118 -170 119
-195 8 -121 -101 68 -169 164 -273 390 -146 316 -253 437 -578 651 -108 70
-243 161 -301 201 -130 90 -339 294 -404 395 -49 76 -116 209 -116 230 0 29
-19 10 -43 -44z"/>
<path d="M5710 6330 c-6 -11 -49 -73 -95 -137 -47 -64 -85 -121 -85 -125 0 -4
52 -8 115 -8 l114 0 42 70 c23 39 43 70 45 70 3 0 25 -31 50 -70 l45 -70 109
0 c72 0 110 4 110 11 0 6 -41 71 -92 145 l-92 134 -128 0 c-117 0 -128 -2
-138 -20z"/>
<path d="M4380 5330 l0 -640 145 0 145 0 0 235 0 235 235 0 235 0 0 130 0 130
-235 0 -236 0 3 143 3 142 258 3 257 2 0 130 0 130 -405 0 -405 0 0 -640z"/>
<path d="M5390 5330 l0 -640 435 0 435 0 0 135 0 135 -287 2 -288 3 -3 118 -3
117 267 0 266 0 -6 23 c-3 12 -6 70 -6 129 l0 108 -257 2 -258 3 0 120 0 120
135 0 c74 0 201 1 283 3 l147 2 0 130 0 130 -430 0 -430 0 0 -640z"/>
<path d="M6471 5330 l2 -641 146 3 146 3 1 367 c0 202 3 370 5 373 8 7 352
-497 459 -672 l45 -73 142 0 143 0 0 640 0 640 -145 0 -145 0 0 -381 c0 -288
-3 -380 -12 -377 -13 5 -293 429 -415 630 l-78 128 -148 0 -148 0 2 -640z"/>
<path d="M7817 5963 c-2 -5 -3 -291 -3 -638 l2 -630 144 0 145 0 3 638 2 637
-144 0 c-80 0 -147 -3 -149 -7z"/>
<path d="M8487 5663 c112 -168 202 -311 200 -317 -3 -6 -99 -155 -215 -331
l-211 -320 167 -3 c156 -2 168 -1 182 17 8 11 67 103 130 205 63 102 118 185
122 186 4 0 197 -288 263 -395 9 -14 32 -15 179 -13 l168 3 -162 245 c-89 135
-184 278 -211 319 -27 41 -49 81 -49 90 0 9 77 135 171 281 94 146 182 282
195 303 l24 37 -168 0 -168 0 -18 -32 c-11 -18 -51 -85 -91 -148 -40 -63 -85
-135 -100 -159 l-28 -45 -21 26 c-11 15 -66 101 -121 192 l-100 166 -171 0
-171 0 204 -307z"/>
</g>
</svg>
