<?xml version="1.0" standalone="no"?>
<!DOCTYPE svg PUBLIC "-//W3C//DTD SVG 20010904//EN"
 "http://www.w3.org/TR/2001/REC-SVG-20010904/DTD/svg10.dtd">
<svg version="1.0" xmlns="http://www.w3.org/2000/svg"
 width="1024.000000pt" height="1024.000000pt" viewBox="0 0 1024.000000 1024.000000"
 preserveAspectRatio="xMidYMid meet">

<g transform="translate(0.000000,1024.000000) scale(0.100000,-0.100000)"
fill="#000000" stroke="none">
<path d="M5518 7700 c-184 -168 -249 -372 -183 -577 29 -91 31 -120 9 -151
-32 -46 -122 -12 -157 60 -20 41 -42 160 -34 189 13 51 -40 -7 -84 -91 -20
-38 -24 -60 -24 -140 0 -85 3 -101 29 -155 68 -137 181 -208 384 -241 104 -16
181 -43 229 -80 17 -13 39 -24 48 -24 24 0 108 84 137 137 85 156 46 310 -137
543 -176 226 -210 344 -151 535 19 59 18 55 7 55 -4 0 -37 -27 -73 -60z"/>
<path d="M3397 7142 c-62 -136 -81 -227 -81 -392 -1 -162 9 -216 59 -326 101
-221 321 -427 630 -590 77 -40 134 -74 127 -74 -31 0 -214 45 -291 72 -188 66
-340 164 -468 301 l-71 77 -7 -38 c-9 -53 11 -234 36 -323 84 -306 325 -520
699 -619 131 -35 134 -37 56 -45 -142 -16 -310 10 -456 68 -33 14 -60 22 -60
18 0 -4 16 -34 36 -67 162 -269 382 -409 934 -593 306 -102 355 -153 247 -256
-58 -55 -145 -99 -258 -130 -336 -94 -483 -169 -642 -328 -169 -169 -257 -365
-257 -571 0 -120 21 -210 71 -314 33 -69 58 -102 128 -172 71 -72 102 -95 180
-134 86 -42 121 -54 121 -41 0 3 -13 31 -29 63 -137 274 -116 593 59 881 43
72 134 180 144 171 3 -3 -2 -28 -10 -55 -39 -126 -26 -313 30 -423 26 -51 101
-152 114 -152 4 0 7 57 8 128 0 199 45 315 168 438 88 88 171 130 357 179 272
73 316 87 406 130 129 61 227 132 327 235 128 133 198 254 252 435 23 77 27
114 32 256 4 144 2 176 -16 246 -40 156 -72 218 -245 470 -99 146 -55 323 100
400 55 27 65 28 196 28 75 0 137 1 137 3 0 16 -37 66 -71 96 -59 54 -135 86
-227 95 l-77 8 -60 60 c-77 77 -123 93 -260 93 -57 0 -142 -7 -191 -16 -138
-26 -273 -22 -364 9 -41 14 -76 24 -78 22 -8 -7 39 -83 77 -127 44 -49 153
-112 217 -124 19 -3 34 -9 32 -13 -2 -3 -22 -44 -45 -91 -61 -120 -77 -192
-70 -315 7 -145 31 -210 136 -368 139 -208 152 -243 79 -206 -111 56 -209 160
-267 282 -261 551 -292 587 -787 904 -245 157 -311 208 -460 357 -141 142
-205 229 -264 362 -21 47 -40 87 -42 90 -3 2 -21 -31 -41 -74z"/>
</g>
</svg>
