<svg xmlns="http://www.w3.org/2000/svg" viewBox="0 0 64 64">
  <defs><linearGradient id="g" x1="0" x2="1"><stop offset="0" stop-color="#ef4444"/><stop offset="1" stop-color="#b91c1c"/></linearGradient></defs>
  <rect width="64" height="64" rx="12" fill="#0f172a"/>
  <g transform="translate(10,10)">
    <path d="M22 2c-6 3-10 9-10 16 0 6 6 10 6 14 0 4-4 6-8 6 6 2 14 0 16-6 2-6-6-8-6-14 0-3 1-5 2-6 0 5 6 9 10 10-1-6-4-12-10-20z" fill="url(#g)"/>
    <rect x="22" y="24" width="12" height="6" rx="2" fill="#e11d48"/>
  </g>
</svg>