<?xml version="1.0" standalone="no"?>
<!DOCTYPE svg PUBLIC "-//W3C//DTD SVG 20010904//EN"
 "http://www.w3.org/TR/2001/REC-SVG-20010904/DTD/svg10.dtd">
<svg version="1.0" xmlns="http://www.w3.org/2000/svg"
 width="1024.000000pt" height="1024.000000pt" viewBox="0 0 1024.000000 1024.000000"
 preserveAspectRatio="xMidYMid meet">

<g transform="translate(0.000000,1024.000000) scale(0.100000,-0.100000)"
fill="#000000" stroke="none">
<path d="M5820 7657 c-115 -96 -196 -219 -231 -354 -25 -94 -20 -166 16 -268
29 -81 31 -122 9 -153 -33 -48 -118 -12 -155 66 -17 34 -24 70 -27 135 l-5 88
-24 -23 c-13 -12 -41 -56 -61 -97 -34 -69 -37 -82 -37 -160 0 -100 27 -170 91
-241 77 -86 158 -124 320 -155 103 -19 173 -44 238 -85 l48 -31 48 36 c95 70
159 205 146 311 -13 111 -64 207 -204 384 -153 194 -189 343 -127 531 10 28
15 52 12 55 -2 3 -28 -15 -57 -39z"/>
<path d="M3600 7048 c-56 -120 -80 -223 -87 -364 -9 -193 25 -325 123 -477 57
-88 202 -239 308 -318 84 -64 285 -186 360 -220 25 -11 46 -21 46 -23 0 -2
-35 3 -77 11 -186 33 -420 132 -553 232 -36 27 -102 88 -147 134 -45 47 -84
83 -87 79 -9 -9 -7 -110 5 -207 52 -423 305 -691 769 -814 l105 -28 -78 -8
c-134 -13 -313 15 -448 70 -34 14 -64 23 -67 20 -7 -7 56 -114 104 -176 80
-104 185 -189 349 -281 110 -61 214 -104 460 -188 262 -89 351 -129 367 -165
26 -58 -66 -162 -182 -206 -27 -10 -115 -37 -196 -59 -238 -65 -414 -161 -558
-304 -194 -192 -286 -389 -286 -615 0 -128 16 -197 72 -311 34 -69 58 -102
132 -176 77 -77 105 -98 186 -137 150 -72 146 -73 99 27 -65 139 -82 219 -83
381 -1 116 3 155 22 225 24 91 89 236 145 322 33 52 127 162 133 156 1 -2 -6
-33 -16 -70 -43 -156 -32 -320 30 -436 29 -55 114 -162 128 -162 4 0 6 51 4
112 -4 142 14 236 68 345 83 167 202 249 465 318 439 116 551 169 738 353 148
146 240 302 288 487 20 77 24 113 23 245 -1 252 -44 382 -205 620 -104 153
-114 176 -113 265 0 86 23 135 90 193 76 68 137 86 287 87 70 0 127 3 127 6 0
20 -64 95 -105 125 -58 41 -118 60 -215 70 -69 6 -70 7 -115 60 -92 107 -193
130 -430 96 -77 -11 -163 -24 -192 -27 -62 -8 -190 10 -255 36 -62 24 -62 12
-5 -72 50 -75 122 -129 213 -159 35 -12 64 -24 64 -26 0 -3 -20 -46 -45 -97
-61 -127 -78 -206 -72 -337 7 -141 30 -202 138 -366 49 -74 100 -157 115 -185
23 -46 24 -51 7 -45 -48 18 -130 76 -177 126 -62 65 -101 129 -186 310 -195
415 -310 538 -768 823 -288 180 -480 341 -610 512 -52 69 -152 254 -152 281 0
35 -24 7 -60 -68z"/>
</g>
</svg>
